<svg width="72" height="57" viewBox="0 0 72 57" fill="none" xmlns="http://www.w3.org/2000/svg">
<g clip-path="url(#clip0_10_308)">
<path d="M70.8285 23.4198C69.0634 22.228 64.425 21.719 61.0528 22.63C60.871 19.261 59.1392 16.422 55.9707 13.9449L54.7978 13.1552L54.0162 14.3393C52.4796 16.6789 51.8322 19.7958 52.0616 22.6291C52.2425 24.3747 52.848 26.3371 54.0162 27.7609C49.6272 30.3144 45.5819 29.7347 27.6662 29.7347H0.00523339C-0.0756912 33.7922 0.574561 41.5979 5.52333 47.952C6.06981 48.6539 6.66961 49.3328 7.31986 49.987C11.3432 54.0282 17.4221 56.9914 26.5123 57C40.3799 57.0124 52.2615 49.4942 59.4886 31.3151C61.8668 31.3543 68.1447 31.743 71.2169 25.788C71.2921 25.6877 71.9986 24.2085 71.9986 24.2085L70.8275 23.4188L70.8285 23.4198ZM18.0571 19.7089H10.2788V27.5107H18.0571V19.7089ZM28.106 19.7089H20.3278V27.5107H28.106V19.7089ZM38.155 19.7089H30.3767V27.5107H38.155V19.7089ZM48.2039 19.7089H40.4256V27.5107H48.2039V19.7089ZM8.00819 19.7089H0.229918V27.5107H8.00819V19.7089ZM18.0571 9.85492H10.2788V17.6567H18.0571V9.85492ZM28.106 9.85492H20.3278V17.6567H28.106V9.85492ZM38.155 9.85492H30.3767V17.6567H38.155V9.85492ZM38.155 0H30.3767V7.80181H38.155V0Z" fill="#CBDDE2"/>
</g>
<defs>
<clipPath id="clip0_10_308">
<rect width="72" height="57" fill="white"/>
</clipPath>
</defs>
</svg>
