<svg width="50" height="73" viewBox="0 0 50 73" fill="none" xmlns="http://www.w3.org/2000/svg">
<path d="M25 36.5C25 33.45 26.2116 30.5249 28.3683 28.3683C30.5249 26.2116 33.45 25 36.5 25C39.55 25 42.4751 26.2116 44.6317 28.3683C46.7884 30.5249 48 33.45 48 36.5C48 39.55 46.7884 42.4751 44.6317 44.6317C42.4751 46.7884 39.55 48 36.5 48C33.45 48 30.5249 46.7884 28.3683 44.6317C26.2116 42.4751 25 39.55 25 36.5V36.5Z" stroke="#CBDDE2" stroke-width="3.5"/>
<path d="M2 59.5C2 56.45 3.2116 53.5249 5.36827 51.3683C7.52494 49.2116 10.45 48 13.5 48H25V59.5C25 62.55 23.7884 65.4751 21.6317 67.6317C19.4751 69.7884 16.55 71 13.5 71C10.45 71 7.52494 69.7884 5.36827 67.6317C3.2116 65.4751 2 62.55 2 59.5Z" stroke="#CBDDE2" stroke-width="3.5"/>
<path d="M25 2V25H36.5C39.55 25 42.4751 23.7884 44.6317 21.6317C46.7884 19.4751 48 16.55 48 13.5C48 10.45 46.7884 7.52494 44.6317 5.36827C42.4751 3.2116 39.55 2 36.5 2L25 2Z" stroke="#CBDDE2" stroke-width="3.5"/>
<path d="M2 13.5C2 16.55 3.2116 19.4751 5.36827 21.6317C7.52494 23.7884 10.45 25 13.5 25H25V2H13.5C10.45 2 7.52494 3.2116 5.36827 5.36827C3.2116 7.52494 2 10.45 2 13.5Z" stroke="#CBDDE2" stroke-width="3.5"/>
<path d="M2 36.5C2 39.55 3.2116 42.4751 5.36827 44.6317C7.52494 46.7884 10.45 48 13.5 48H25V25H13.5C10.45 25 7.52494 26.2116 5.36827 28.3683C3.2116 30.5249 2 33.45 2 36.5Z" stroke="#CBDDE2" stroke-width="3.5"/>
</svg>
