<svg width="458" height="458" viewBox="0 0 458 458" fill="none" xmlns="http://www.w3.org/2000/svg">
<g clip-path="url(#clip0_10_329)">
<path d="M42.9375 229C42.9375 126.218 126.218 42.9375 229 42.9375C285.445 42.9375 335.986 68.0738 370.157 107.791C377.85 116.826 391.447 117.81 400.392 110.117C409.338 102.424 410.411 88.827 402.718 79.8816C360.764 30.9508 298.505 0 229 0C102.513 0 0 102.513 0 229V264.781C0 276.679 9.57149 286.25 21.4688 286.25C33.366 286.25 42.9375 276.679 42.9375 264.781V229ZM453.08 181.679C450.665 170.05 439.215 162.626 427.675 165.13C416.136 167.635 408.622 178.996 411.127 190.535C413.721 202.969 415.152 215.85 415.152 229.089V264.871C415.152 276.768 424.724 286.339 436.621 286.339C448.518 286.339 458.089 276.768 458.089 264.871V229.089C458.089 212.898 456.39 197.065 453.17 181.769L453.08 181.679ZM229 71.5625C212.004 71.5625 195.545 74.2461 180.248 79.2555C166.651 83.7281 163.52 100.456 172.823 111.369C179.175 118.794 189.641 121.03 199.123 118.436C208.605 115.842 218.623 114.5 229 114.5C292.243 114.5 343.5 165.757 343.5 229V251.274C343.5 273.816 342.158 296.269 339.564 318.632C338.043 331.692 347.973 343.5 361.212 343.5C371.767 343.5 380.802 335.807 382.054 325.341C385.006 300.831 386.527 276.142 386.527 251.363V229.089C386.527 142.141 316.038 71.652 229.089 71.652L229 71.5625ZM134.806 133.017C126.666 123.535 112.174 122.819 104.481 132.659C83.8176 159.227 71.5625 192.682 71.5625 229V251.274C71.5625 272.922 69.2367 294.569 64.5852 315.591C61.5438 329.545 71.652 343.5 85.9645 343.5C95.357 343.5 103.766 337.238 105.823 328.025C111.548 302.888 114.5 277.215 114.5 251.274V229C114.5 204.669 122.104 182.127 134.985 163.61C141.425 154.307 142.141 141.604 134.806 133.017ZM229 143.125C181.59 143.125 143.125 181.59 143.125 229V251.274C143.125 283.388 139.01 315.233 130.78 346.184C127.381 358.975 136.774 372.125 150.013 372.125C158.511 372.125 166.025 366.579 168.261 358.349C177.654 323.463 182.484 287.502 182.484 251.274V229C182.484 203.327 203.327 182.484 229 182.484C254.673 182.484 275.516 203.327 275.516 229V251.274C275.516 283.745 272.385 316.038 266.213 347.794C263.797 360.228 273.1 372.125 285.713 372.125C294.838 372.125 302.709 365.863 304.498 356.918C311.386 322.21 314.875 286.876 314.875 251.274V229C314.875 181.59 276.41 143.125 229 143.125ZM250.469 229C250.469 217.103 240.897 207.531 229 207.531C217.103 207.531 207.531 217.103 207.531 229V251.274C207.531 304.856 197.691 357.991 178.459 407.996L173.181 421.682C168.888 432.774 174.434 445.208 185.526 449.413C196.618 453.617 209.052 448.16 213.256 437.068L218.534 423.382C239.645 368.457 250.469 310.134 250.469 251.274V229Z" fill="#272822"/>
</g>
<defs>
<clipPath id="clip0_10_329">
<rect width="458" height="458" fill="white"/>
</clipPath>
</defs>
</svg>
