<svg width="73" height="73" viewBox="0 0 73 73" fill="none" xmlns="http://www.w3.org/2000/svg">
<path d="M53.968 33.4484C48.1232 33.4484 44.3759 37.1882 44.3759 42.1024C44.3759 47.4285 47.5207 49.9505 52.2443 51.9615L53.8815 52.6657C56.8636 53.9724 58.3382 54.7682 58.3382 57.0156C58.3382 58.8842 56.917 60.2392 54.2019 60.2392C50.9731 60.2392 49.4427 58.0477 48.0419 55.7546L42.8962 59.1867C44.8182 62.9874 48.2707 66.0484 54.3493 66.0484C60.5703 66.0484 65.2024 62.8196 65.2024 56.9266C65.2024 51.4581 62.0652 49.0251 56.495 46.6379L54.8603 45.9413C52.0511 44.721 50.8308 43.9303 50.8308 41.9677C50.8308 40.3787 52.0511 39.1584 53.968 39.1584C55.8518 39.1584 57.0569 39.9567 58.178 41.9677L63.2779 38.6957C61.1271 34.895 58.1297 33.4484 53.968 33.4484ZM32.5999 33.4484V55.0249C32.5999 58.335 31.3466 59.1867 29.1678 59.1867C26.8899 59.1867 25.3086 57.7655 24.2637 55.9224L18.874 59.1867C20.435 62.4891 24.2637 66.0484 29.572 66.0484C35.4422 66.0484 39.4641 62.9264 39.4641 56.0698V33.4484H32.5999ZM4.57614 4.27808H67.4879C68.1235 4.27808 68.632 4.78908 68.632 5.42465V68.3339C68.632 68.972 68.1235 69.4805 67.4879 69.4805H4.57614C3.94057 69.4805 3.43211 68.972 3.43211 68.3339V5.42465C3.43211 4.78908 3.94057 4.27808 4.57614 4.27808ZM4.57614 0.848511C2.06944 0.848511 0 2.91795 0 5.42465V68.3339C0 70.8406 2.06944 72.9126 4.57614 72.9126H67.4879C69.9946 72.9126 72.0641 70.8482 72.0641 68.3339V5.42465C72.0641 2.91795 69.9997 0.848511 67.4879 0.848511H4.57614Z" fill="#CBDDE2"/>
</svg>
