<svg width="82" height="122" viewBox="0 0 82 122" fill="none" xmlns="http://www.w3.org/2000/svg">
<circle cx="25" cy="50" r="9.5" fill="black" stroke="black"/>
<circle cx="52" cy="50" r="9.5" fill="black" stroke="black"/>
<circle cx="22" cy="47" r="3" fill="#D9D9D9"/>
<circle cx="50" cy="47" r="3" fill="#D9D9D9"/>
<path d="M46.5 88.5C46.5 92.4156 45.4046 95.9387 43.6595 98.4692C41.9129 101.002 39.5501 102.5 37 102.5C34.4499 102.5 32.0871 101.002 30.3405 98.4692C28.5954 95.9387 27.5 92.4156 27.5 88.5C27.5 84.5844 28.5954 81.0613 30.3405 78.5308C32.0871 75.9983 34.4499 74.5 37 74.5C39.5501 74.5 41.9129 75.9983 43.6595 78.5308C45.4046 81.0613 46.5 84.5844 46.5 88.5Z" fill="#A4303F" stroke="black"/>
<g filter="url(#filter0_d_95_32)">
<path d="M21.5 99.5C25.6667 109.833 37.7 124 52.5 98" stroke="black" stroke-width="2" stroke-linecap="round"/>
</g>
<path d="M1 16C3 11.1667 9.7 1.4 20.5 1M61 1C65 1.5 74.5 5.2 80.5 16" stroke="black" stroke-width="2" stroke-linecap="round"/>
<defs>
<filter id="filter0_d_95_32" x="16.5" y="96.9998" width="41" height="24.764" filterUnits="userSpaceOnUse" color-interpolation-filters="sRGB">
<feFlood flood-opacity="0" result="BackgroundImageFix"/>
<feColorMatrix in="SourceAlpha" type="matrix" values="0 0 0 0 0 0 0 0 0 0 0 0 0 0 0 0 0 0 127 0" result="hardAlpha"/>
<feOffset dy="4"/>
<feGaussianBlur stdDeviation="2"/>
<feComposite in2="hardAlpha" operator="out"/>
<feColorMatrix type="matrix" values="0 0 0 0 0 0 0 0 0 0 0 0 0 0 0 0 0 0 0.25 0"/>
<feBlend mode="normal" in2="BackgroundImageFix" result="effect1_dropShadow_95_32"/>
<feBlend mode="normal" in="SourceGraphic" in2="effect1_dropShadow_95_32" result="shape"/>
</filter>
</defs>
</svg>
