<svg width="67" height="73" viewBox="0 0 67 73" fill="none" xmlns="http://www.w3.org/2000/svg">
<path d="M40.6336 22.3212C32.7906 22.3212 28.1077 25.6439 28.1077 31.1887C28.1077 37.2038 32.7575 38.8639 40.298 39.6113C49.3054 40.4986 49.9994 41.8333 49.9994 43.6078C49.9994 46.6561 47.5359 47.9603 41.7446 47.9603C34.4533 47.9603 32.844 46.1273 32.3177 42.5248C32.2618 42.1359 31.9313 41.8587 31.5449 41.8587H27.9653C27.5229 41.8587 27.1924 42.2223 27.1924 42.6392C27.1924 47.2662 29.7144 52.7779 41.7446 52.7779C50.4469 52.7779 55.4349 49.3458 55.4349 43.3587C55.4349 37.4275 51.4155 35.8437 42.9878 34.7072C34.4228 33.5988 33.5635 33.0166 33.5635 31.0209C33.5635 29.3582 34.3134 27.1719 40.6336 27.1719C46.2597 27.1719 48.3647 28.3871 49.224 32.1853C49.3079 32.5438 49.6105 32.8234 49.9994 32.8234H53.5764C53.8002 32.8234 53.9908 32.7141 54.1561 32.5463C54.2959 32.409 54.3798 32.1853 54.3518 31.9361C53.7976 25.3948 49.4477 22.3212 40.6336 22.3212ZM33.2431 0.131958C32.2313 0.131958 31.222 0.378555 30.3474 0.876846L2.88043 16.7332C1.1059 17.7603 0 19.7026 0 21.7517V50.5204C0 52.6 1.1059 54.5143 2.88043 55.5389L10.0904 59.6955C13.5835 61.4141 14.8292 61.4116 16.408 61.4116C21.5918 61.4116 24.5561 58.282 24.5561 52.8491V23.1652C24.5561 22.7228 24.1976 22.3593 23.7553 22.3593H20.2901C19.8172 22.3593 19.4817 22.7228 19.4817 23.1652V52.8211C19.4817 55.2592 16.9648 57.6439 12.8895 55.6202L5.349 51.2678C5.07189 51.128 4.9041 50.8254 4.9041 50.5204V21.7797C4.9041 21.4466 5.07189 21.167 5.349 20.9992L32.816 5.15046C33.0652 4.98267 33.4007 4.98267 33.6779 5.15046L61.1449 20.9992C61.422 21.167 61.5898 21.4466 61.5898 21.7517V50.5204C61.5898 50.8254 61.422 51.128 61.1728 51.2678L33.6779 67.1495C33.4287 67.2894 33.0652 67.2894 32.816 67.1495L25.7459 62.9649C25.5527 62.8276 25.2806 62.8022 25.0849 62.9115C23.1171 64.02 22.7587 64.1573 20.9282 64.7954C20.4859 64.9352 19.7918 65.2098 21.1774 65.9877L30.3474 71.4232C31.2347 71.9214 32.2364 72.196 33.233 72.196C34.26 72.196 35.2541 71.9214 36.1413 71.4232L63.6414 55.5389C65.4159 54.5143 66.5218 52.6 66.5218 50.5204V21.7797C66.5218 19.7001 65.4159 17.7857 63.6414 16.7611L36.1413 0.876846C35.2668 0.378555 34.255 0.131958 33.2431 0.131958Z" fill="#CBDDE2"/>
</svg>
