<svg width="79" height="69" viewBox="0 0 79 69" fill="none" xmlns="http://www.w3.org/2000/svg">
<path d="M39.0879 41.1939C42.9515 41.1939 46.0816 38.0639 46.0816 34.2002C46.0816 30.3366 42.9515 27.2065 39.0879 27.2065C35.2242 27.2065 32.0942 30.3366 32.0942 34.2002C32.0942 38.0639 35.2242 41.1939 39.0879 41.1939ZM61.944 43.4841C61.5169 43.6217 61.0897 43.7592 60.6457 43.8823C59.579 40.552 58.2662 37.3013 56.7531 34.1399C58.2203 31.0243 59.4559 27.8195 60.4937 24.535C61.2876 24.7643 62.0526 25.008 62.7839 25.2542C69.9006 27.6964 74.8913 31.3308 74.8913 34.1085C74.8913 37.101 69.5627 40.9646 61.944 43.4841ZM59.1663 59.8992C59.0288 61.7599 58.1117 63.5022 56.6469 64.6775C54.2191 66.082 49.0426 64.2504 43.4535 59.4552C42.814 58.9049 42.172 58.3113 41.5156 57.6983C43.8517 55.1185 46.0043 52.3867 47.9591 49.5149C51.4559 49.2253 54.9359 48.692 58.3724 47.9125C58.5244 48.5375 58.662 49.165 58.785 49.7755C59.5332 53.0721 59.6538 56.5086 59.1663 59.8992ZM39.2109 55.3164C37.652 53.6368 36.0954 51.7761 34.5847 49.7755C36.0496 49.8358 37.5603 49.8672 39.0879 49.8672C40.6613 49.8672 42.2034 49.8358 43.7286 49.7586C42.3241 51.6989 40.8134 53.5475 39.2109 55.3164ZM35.4704 59.028C32.9509 61.3327 30.0333 63.1668 26.8574 64.4169C25.1633 65.2277 23.2085 65.3025 21.4685 64.6172C19.0408 63.2126 18.032 57.8214 19.4076 50.5695C19.5741 49.7128 19.7575 48.8585 19.9723 48.0186C23.3919 48.7523 26.8429 49.2567 30.3397 49.5149C32.3548 52.3698 34.5678 55.104 36.9352 57.6693C36.4453 58.1424 35.9578 58.6009 35.4704 59.028ZM17.6652 44.0633C17.0257 43.8823 16.3982 43.682 15.7732 43.4696C12.5201 42.4464 8.82536 40.8271 6.15386 38.7058C4.61178 37.6367 3.57407 35.986 3.28447 34.1399C3.28447 31.3453 8.10862 27.7737 15.0709 25.3459C15.9421 25.0394 16.8254 24.7643 17.7111 24.5061C18.7512 27.8195 20.0013 31.0702 21.454 34.2171C19.9868 37.4075 18.7198 40.7064 17.6652 44.0633ZM21.4082 3.81463C23.9711 2.3184 29.6664 4.45656 35.6683 9.7706C36.0496 10.106 36.4309 10.4729 36.829 10.8397C34.4616 13.3905 32.2776 16.1079 30.277 18.9483C26.8284 19.2524 23.4064 19.7881 20.0181 20.5362C19.8203 19.7567 19.6513 18.9628 19.4824 18.1688C18.0489 10.7794 18.9949 5.20468 21.4082 3.81463ZM39.1192 13.1757C40.7217 14.9157 42.2324 16.7474 43.6369 18.6418C40.6155 18.5043 37.5772 18.5043 34.5533 18.6418C36.0496 16.6726 37.5916 14.8409 39.1192 13.1757ZM54.8611 30.3535C54.1419 29.0093 53.4107 27.6651 52.6457 26.3522C51.8976 25.0539 51.1205 23.7724 50.3096 22.5055C52.7687 22.8095 55.1193 23.2222 57.3178 23.7266C56.6155 25.9854 55.7926 28.1839 54.8611 30.3535ZM52.6626 42.0337C53.4396 40.6895 54.1733 39.3308 54.89 37.9577C55.8674 40.1707 56.7217 42.415 57.4722 44.7221C55.1048 45.2554 52.7084 45.6681 50.2951 45.9432C51.1205 44.6594 51.8976 43.3465 52.6626 42.0337ZM25.086 34.2171C26.0948 32.1079 27.1928 30.047 28.3536 28.0174C29.5144 25.9854 30.7669 24.0162 32.0797 22.0783C34.3699 21.9094 36.706 21.8177 39.0879 21.8177C41.4698 21.8177 43.8203 21.9094 46.096 22.0783C47.3944 24.0017 48.63 25.9709 49.8052 27.986C50.9829 30.0011 52.081 32.0621 53.1187 34.1544C52.0954 36.2612 50.9974 38.339 49.8221 40.3854C48.6613 42.415 47.4233 44.3843 46.1274 46.339C43.8517 46.5079 41.4843 46.5827 39.0879 46.5827C36.6915 46.5827 34.3699 46.5079 32.1256 46.3704C30.7983 44.4301 29.5458 42.4464 28.3705 40.4144C27.1928 38.3848 26.1093 36.3239 25.086 34.2171ZM20.9038 23.6952C23.1023 23.2077 25.4384 22.8095 27.8661 22.5055C27.0553 23.7724 26.2613 25.0708 25.5132 26.3836C24.7651 27.682 24.0338 29.0093 23.3461 30.3535C22.3832 28.0777 21.5747 25.8479 20.9038 23.6952ZM25.5301 42.0651C26.3071 43.3924 27.1011 44.7221 27.9409 46.018C25.559 45.7598 23.194 45.3785 20.858 44.8741C21.5289 42.6756 22.3687 40.3999 23.3461 38.0784C24.0483 39.4226 24.7651 40.7523 25.5301 42.0651ZM43.1953 9.2059C48.8737 4.25868 54.1733 2.3184 56.5866 3.70845C59.1663 5.1902 60.1582 11.1751 58.5389 19.04C58.4327 19.5589 58.3265 20.0608 58.189 20.5652C54.7983 19.8026 51.3642 19.2524 47.9132 18.9483C45.9271 16.1079 43.76 13.3905 41.4094 10.8397C42.0031 10.275 42.5847 9.73923 43.1953 9.2059ZM63.8529 22.17C63.0276 21.8949 62.2047 21.6343 61.3793 21.3905C61.5169 20.8258 61.64 20.2611 61.7606 19.6964C63.6406 10.5959 62.4026 3.2813 58.2348 0.86802C54.2191 -1.43666 47.6695 0.959726 41.0426 6.73229C40.3862 7.29699 39.7443 7.89307 39.1337 8.48915C38.7211 8.09096 38.2939 7.69518 37.8668 7.31147C30.9189 1.14313 23.9566 -1.45114 19.7889 0.976613C15.7877 3.29577 14.5979 10.1833 16.2776 18.7938C16.4441 19.6506 16.6275 20.4904 16.8423 21.3447C15.8649 21.6198 14.902 21.9239 14.0018 22.2448C5.84737 25.0708 0 29.5281 0 34.1399C0 38.9037 6.23109 43.682 14.7041 46.5827C15.3919 46.812 16.0773 47.0413 16.7795 47.2392C16.5527 48.1562 16.3524 49.0564 16.169 49.9879C14.5665 58.4633 15.819 65.1819 19.8203 67.4866C23.9421 69.8685 30.8731 67.4262 37.623 61.5161C38.1563 61.0431 38.6897 60.5556 39.2254 60.0344C39.8963 60.6932 40.5986 61.3182 41.3008 61.9288C47.836 67.5469 54.2964 69.8226 58.2807 67.5179C62.4026 65.136 63.7467 57.9131 62.0068 49.1191C61.8692 48.4458 61.7148 47.7604 61.5483 47.0582C62.0357 46.9206 62.5087 46.7662 62.9842 46.6141C71.7926 43.6989 78.1757 38.9809 78.1757 34.1399C78.1757 29.5136 72.1594 25.0249 63.8529 22.17Z" fill="#CBDDE2"/>
</svg>
