<svg class="icon" width="237" height="280" viewBox="0 0 237 280" fill="none" xmlns="http://www.w3.org/2000/svg">
<path d="M0 23.3369C0 10.4246 7.56245 0 16.924 0H220.087C229.438 0 237 10.4246 237 23.3369C237 36.2385 229.438 46.6631 220.076 46.6631H16.9132C7.56246 46.6631 0 36.2385 0 23.3369ZM0 140C0 127.098 7.56245 116.663 16.924 116.663H220.087C229.448 116.663 237.011 127.098 237.011 140C237.011 152.902 229.448 163.337 220.087 163.337H16.9132C7.56246 163.337 0 152.902 0 140ZM237 256.663C237 269.575 229.438 280 220.076 280H16.9132C7.56246 280 0 269.575 0 256.663C0 243.762 7.56245 233.337 16.924 233.337H220.087C229.448 233.337 237 243.762 237 256.663Z" fill="white"/>
</svg>
