<svg xmlns="http://www.w3.org/2000/svg" width="22" height="26" fill="none" viewBox="0 0 22 26">
  <path fill="#80FF00" d="M0 2.167C0 .968.702 0 1.571 0H20.43C21.298 0 22 .968 22 2.167c0 1.198-.702 2.166-1.571 2.166H1.57C.702 4.333 0 3.365 0 2.167ZM0 13c0-1.198.702-2.167 1.571-2.167H20.43c.869 0 1.571.969 1.571 2.167s-.702 2.167-1.571 2.167H1.57C.702 15.167 0 14.198 0 13Zm22 10.833C22 25.032 21.298 26 20.429 26H1.57C.702 26 0 25.032 0 23.833c0-1.198.702-2.166 1.571-2.166H20.43c.869 0 1.571.968 1.571 2.166Z"/>
</svg>
