<svg xmlns="http://www.w3.org/2000/svg" width="19" height="26" fill="none" viewBox="0 0 19 26">
  <path fill="#80FF00" d="M0 2.71C0 1.397 1.045.333 2.333.333v21.842l6.325-4.597a1.144 1.144 0 0 1 1.356 0l6.32 4.597V2.71h-14V.334h14c1.288 0 2.333 1.064 2.333 2.375v21.773c0 .445-.243.851-.632 1.054a1.15 1.15 0 0 1-1.21-.089l-7.492-5.443-7.49 5.443a1.15 1.15 0 0 1-1.211.09A1.185 1.185 0 0 1 0 24.481V2.71Z"/>
  <path fill="#80FF00" d="M4.667 6.188v10.878c0 .331.265.6.59.6a.575.575 0 0 0 .34-.108l3.737-2.662 3.735 2.662c.1.072.22.109.34.109.326 0 .591-.27.591-.602V6.188C14 5.532 13.478 5 12.834 5h-7c-.644 0-1.167.532-1.167 1.188Z"/>
</svg>
